<svg xmlns="http://www.w3.org/2000/svg" viewBox="0 0 81.58 81.58"><defs><style>.cls-1{fill:none;stroke:#313131;stroke-linecap:round;stroke-linejoin:round;stroke-width:2px;}</style></defs><title>exp</title><g id="Layer_2" data-name="Layer 2"><g id="Layer_2-2" data-name="Layer 2"><circle class="cls-1" cx="35.47" cy="18.81" r="5.14" transform="translate(10.84 50.52) rotate(-80.1)"/><path class="cls-1" d="M45.64,38.52a2.44,2.44,0,0,1-.28.14H45.3a1.3,1.3,0,0,1-.35.11.7.7,0,0,1-.18,0l-.18,0a1.88,1.88,0,0,1-.33,0l-.73-.09a1.82,1.82,0,0,1-.69-.26.61.61,0,0,1-.14-.07l-6.47-3.94"/><path class="cls-1" d="M38.19,28.84a.29.29,0,0,1,.13.08s.06,0,.06,0l5.86,3.57"/><path class="cls-1" d="M44.24,32.52,50.1,29l.32-.16a2.75,2.75,0,0,1,1.2-.27,2.87,2.87,0,0,1,1.65.51h0a2.57,2.57,0,0,1,.86.9,2.9,2.9,0,0,1-.86,3.94v0l-.11.07-2.74,1.66-4.63,2.82a.69.69,0,0,1-.15.07,2.44,2.44,0,0,1-.28.14H45.3a1.3,1.3,0,0,1-.35.11.7.7,0,0,1-.18,0l-.18,0a1.88,1.88,0,0,1-.33,0,2.61,2.61,0,0,1-.73-.09,3.38,3.38,0,0,1-.69-.26"/><path class="cls-1" d="M37.25,53.1l-1.46,8.18a3.28,3.28,0,0,0,2.66,3.78,2.37,2.37,0,0,0,.59.06,3.27,3.27,0,0,0,3.21-2.7l1.81-10.33h0v0a3.46,3.46,0,0,0-.15-1.64,4.9,4.9,0,0,0-.24-.52c-1.07-1.65-9.41-6.41-9.41-6.41"/><path class="cls-1" d="M25.45,50.66l-7,18a3.27,3.27,0,1,0,6.09,2.36l6.57-16.77"/><path class="cls-1" d="M37.24,53.1s-7.57-4-10-6L27,46.91c-2.25-2-1.76-5.27-1.32-7.75,0-.17.06-.33.09-.51a46.86,46.86,0,0,1,2.82-8.51,4,4,0,0,1,4.7-2.46,26.76,26.76,0,0,1,4.9,1.16l.13.08s.06,0,.06,0"/><path class="cls-1" d="M34.26,43.48v0a26.86,26.86,0,0,1,2-8.94"/><path class="cls-1" d="M34.86,38.88c-3.75,5-9.3,2.46-9.3,2.46a3.29,3.29,0,0,1-3.71.89L17.7,40.58a3.3,3.3,0,0,1-1.85-4.29l3-7.67s0,0,0,0A6.53,6.53,0,0,1,27.38,25l1.14.47a3.24,3.24,0,0,1,2,2.47"/><path class="cls-1" d="M18.91,28.58s0,0,0,0a2.22,2.22,0,0,0-.12.72,2.31,2.31,0,0,0,1.45,2.14,8.56,8.56,0,0,0,7.46-.55,5.19,5.19,0,0,0,.79-.53"/><line class="cls-1" x1="18.78" y1="29.34" x2="16.7" y2="28.84"/><polyline class="cls-1" points="53.27 33.88 53.27 33.9 53.27 38.69 53.27 40.43 53.27 56.82"/><line class="cls-1" x1="53.27" y1="29.03" x2="53.27" y2="24.49"/><path class="cls-1" d="M8.21,80.58,8.94,80H9L9,80c1.67-1.26,3.4-2.57,5.28-3.78.32-.2.63-.4,1-.59a23.58,23.58,0,0,1,8.27-2.87,98.78,98.78,0,0,1,14.06-.68"/><path class="cls-1" d="M26.58,72.36S33.51,62.22,61,63"/><path class="cls-1" d="M80.58,46.15a67.53,67.53,0,0,0-12.84,3h0a53.19,53.19,0,0,0-9.33,4.21c-7.53,4.36-11,9.12-11.79,10.34"/><polyline class="cls-1" points="67.74 49.15 67.73 49.15 61.08 49.05 74.02 31.12 65.78 31.12 76.56 17.21 69.91 17.06 80.58 1.01 80.58 1"/><polyline class="cls-1" points="1 26.98 10.08 44.64 4.41 44.82 13.58 60.11 6.57 60.11 14.4 74.11 15.24 75.61"/><line class="cls-1" x1="62.57" y1="73.15" x2="63.44" y2="75.61"/><line class="cls-1" x1="68.13" y1="73.15" x2="67.26" y2="75.61"/><line class="cls-1" x1="67.79" y1="54.1" x2="66.91" y2="56.56"/><line class="cls-1" x1="73.08" y1="62.08" x2="72.2" y2="64.54"/><line class="cls-1" x1="76.95" y1="62.09" x2="76.08" y2="64.56"/><line class="cls-1" x1="44.99" y1="75.52" x2="45.87" y2="77.98"/><line class="cls-1" x1="40.35" y1="75.91" x2="41.23" y2="78.37"/><line class="cls-1" x1="1.95" y1="38.87" x2="3.15" y2="39.97"/><line class="cls-1" x1="2.8" y1="53.1" x2="4.75" y2="54.88"/><line class="cls-1" x1="4.32" y1="69.93" x2="7.84" y2="73.15"/><line class="cls-1" x1="79.69" y1="10.96" x2="78.26" y2="12.49"/><line class="cls-1" x1="78.37" y1="24.69" x2="76.57" y2="26.54"/><line class="cls-1" x1="76.32" y1="39.16" x2="73.75" y2="41.82"/></g></g></svg>