<svg xmlns="http://www.w3.org/2000/svg" viewBox="0 0 284.05 122.8"><defs><style>.cls-1,.cls-2{fill:#fff;}.cls-1{fill-rule:evenodd;}.cls-2{font-size:65px;font-family:IgraSans, Igra Sans;}</style></defs><title>Asset 9</title><g id="Layer_2" data-name="Layer 2"><g id="Layer_1-2" data-name="Layer 1"><path class="cls-1" d="M99.58,0a.62.62,0,0,0,.38.13c.78,2.07.34,4.77.52,7.48.21,3.17,2.17,6.63-.52,8.12C98.6,11.39,99.1,5,99.58,0Z"/><path class="cls-1" d="M159,13.15c-2.09,3.81-3.33,8.45-7,10.71.83-4.32,4.33-7.1,6.31-10.71Z"/><path class="cls-1" d="M118.28,13.67h.38c-.48,3-.93,7.06-3.74,8.13C114.38,17.92,117.34,16.49,118.28,13.67Z"/><path class="cls-1" d="M70.69,14.57c3,1.72,4.83,4.63,5.67,8.51-3.23-.89-3.31-4.94-5.54-6.83A3.2,3.2,0,0,0,70.69,14.57Z"/><path class="cls-1" d="M100.87,18.57c-.74.18-.78-.34-1.42-.26C98.89,15.23,102.11,16.41,100.87,18.57Z"/><path class="cls-1" d="M145.36,17.93c-.2-.06-.11-.41-.52-.26"/><path class="cls-1" d="M129.88,17.54a35.13,35.13,0,0,1-2.45,7c-.94,2.25-2,4.59-4.12,5.29,1.07-5.08,4.31-8,6.19-12.25Z"/><path class="cls-1" d="M51.22,18.06c4,3.14,6.53,7.74,9.41,12-.59.36-1.09.8-1.68,1.16C56,27.16,52.65,23.58,51.22,18.06Z"/><path class="cls-1" d="M100.74,21c.58,1.58,1.22,5.09-.13,6.32C99,26.48,98.39,21.52,100.74,21Z"/><path class="cls-1" d="M82.55,32.63a10.83,10.83,0,0,1-5.93-8.9.57.57,0,0,0,.13-.39c1.58.43,2.75,2.83,3.87,4.52S83.24,31.09,82.55,32.63Z"/><path class="cls-1" d="M151.55,24.25c-.7,3.55-2.23,7.4-5.42,8.89,0-4,3-6.18,4.78-8.89Z"/><path class="cls-1" d="M101.38,28.63c.9,1.88.41,4.81-.25,6.58C99,34.74,98.61,28.7,101.38,28.63Z"/><path class="cls-1" d="M123.44,30.69a12.86,12.86,0,0,1-2.84,6.45c-2.47-2,.91-5.22,2.06-6.83C123.05,30.3,123.16,30.58,123.44,30.69Z"/><path class="cls-1" d="M93.9,35c-2-.08-1.3-3.38.13-2.19C94.45,33.1,94.77,34.64,93.9,35Z"/><path class="cls-1" d="M84.75,37.27c-1.32-.45-2.58-1.25-2.58-2.71C82.15,31.13,87.1,35,84.75,37.27Z"/><path class="cls-1" d="M110,34.05c.3,2.11-1.1,4.6-2.71,2.83C107.75,35.59,108.66,33.18,110,34.05Z"/><path class="cls-1" d="M145.88,34.18a8.26,8.26,0,0,1-5,7.6C140.76,38,143.2,35.62,145.88,34.18Z"/><path class="cls-1" d="M173.47,34.69c.22,0,.25.1.26.26-1.29,1.76-1.89,4.21-4.38,4.77C169.28,36.6,171.62,35.89,173.47,34.69Z"/><path class="cls-1" d="M72.24,46.68a2.61,2.61,0,0,1-1.81,1.68c-2.26-4.57-5.84-7.83-8-12.51,0-.57.75-.45.9-.9C66.89,38.28,69.2,42.84,72.24,46.68Z"/><path class="cls-1" d="M130.53,36.75c.22,0,.24.11.26.26-.68,2.51-1.29,5.08-3.23,6.32-.38-.18-.52-.59-.9-.77A10.51,10.51,0,0,1,130.53,36.75Z"/><path class="cls-1" d="M88.74,43.33c-2.86,0-4.88-4.29-2.45-6.06A5.81,5.81,0,0,1,88.74,43.33Z"/><path class="cls-1" d="M77.14,40.24a1.17,1.17,0,0,0-.52.51c-2.42.48-2.8-4.19-.51-2.83C76.78,38.31,76.81,39.26,77.14,40.24Z"/><path class="cls-1" d="M120.6,38.17c-.65,2.06-1.18,4.24-3.22,4.9C116.42,40.94,117.94,37.1,120.6,38.17Z"/><path class="cls-1" d="M168.44,40.49c.13,1.25-.95,2.27-1.67,3.23-2.11,2.79-4.65,6.27-8.51,7.35-.06-2.54,2.51-3.43,4.12-4.77,2.07-1.73,3.58-4.24,5.68-5.81Z"/><path class="cls-1" d="M139,42.69a3.89,3.89,0,0,1,1.93.51c-1.31,3.34-4.08,6.31-5.67,9.68-.92,1.95-1.28,4.5-3.87,4.77-.86-1.51.51-2.37,1.16-3.48,1.07-1.81,1.84-3.92,2.84-5.81A33.46,33.46,0,0,1,139,42.69Z"/><path class="cls-1" d="M199.4,42.82c-.45,1.74-1.67,2.72-4,2.57C195.61,43.42,197.59,43.2,199.4,42.82Z"/><path class="cls-1" d="M151.42,43.46a2.34,2.34,0,0,1-1.93,2.06C148.64,44.34,150.35,42.35,151.42,43.46Z"/><path class="cls-1" d="M25.81,46c3.23,1.46,7.42,2,8.9,5.16C31.19,50.55,27.63,48.82,25.81,46Z"/><path class="cls-1" d="M53.15,46c3.45,1,6.45,2.41,7.22,6.06-2.38,0-3.41-1.78-4.64-3.22C54.85,47.84,53.65,47.23,53.15,46Z"/><path class="cls-1" d="M193.33,46.56c-1.78,2.8-5.27,3.92-8.38,5.15s-5.79,3.51-9.15,4.39c1.19-3.33,5.3-4.17,8.76-5.67a37.63,37.63,0,0,0,6.84-3.75A1.5,1.5,0,0,1,193.33,46.56Z"/><path class="cls-1" d="M125.24,46.56a2.74,2.74,0,0,1-2.19,3.87A2.55,2.55,0,0,1,125.24,46.56Z"/><path class="cls-1" d="M148.58,46.94a23.59,23.59,0,0,1-3.22,6.71C143.36,51.43,145.52,47,148.58,46.94Z"/><path class="cls-1" d="M76.88,54.17c-2.19.08-2.73-1.49-3.35-3C75.21,49.48,77.65,51.86,76.88,54.17Z"/><path class="cls-1" d="M35.1,52c3.19.42,6.59,1.75,7.86,4.52C38.94,56.38,36.83,54.37,35.1,52Z"/><path class="cls-1" d="M66.69,58.68c-2.78.89-4.79-1.79-4.38-4.51C64.78,54.66,65.81,56.59,66.69,58.68Z"/><path class="cls-1" d="M143.3,55.33c.13,1.64-.26,2.75-1.94,2.58A1.72,1.72,0,0,1,143.3,55.33Z"/><path class="cls-1" d="M173.86,56.1c-1.28,1.94-3,5.81-6.83,4.77C168.22,58.71,171.09,57.12,173.86,56.1Z"/><path class="cls-1" d="M50.7,61.52c-3.69.16-4.87-2.18-6.83-3.74C46.9,56.38,49.57,59.34,50.7,61.52Z"/><path class="cls-1" d="M130,59.45a1.3,1.3,0,0,1-1.29,2.07A1.35,1.35,0,0,1,130,59.45Z"/><path class="cls-1" d="M44.38,64.1c-.69,1.19-3.07.11-2.58-1A1.91,1.91,0,0,1,44.38,64.1Z"/><path class="cls-1" d="M198.36,65.51a3.24,3.24,0,0,1-4,2.07C194.22,65.41,196.68,65.85,198.36,65.51Z"/><path class="cls-1" d="M32.9,69.9c-3.41.44-6.47-1.27-8.25-2.45C28.12,67,31.4,67.91,32.9,69.9Z"/><path class="cls-1" d="M192.56,68c-1.3,2.8-4.79,4.06-8.9,3.62C186.2,70,188.78,68.36,192.56,68Z"/><path class="cls-1" d="M34.32,69c1.57-.11,2.36.56,3.61.77a7.84,7.84,0,0,0-.51,1.81,18.34,18.34,0,0,1-3.36-1C34,69.88,34.47,69.75,34.32,69Z"/><path class="cls-1" d="M40.12,70.29c1-.16,1.84.22,1.94,1C42.43,74.43,36.5,70.86,40.12,70.29Z"/><path class="cls-1" d="M162.77,71.32c-.07.12-.36.19-.13.26,0,.27-.46,0-.64.12v-.38C162.24,71.06,162.47,71.28,162.77,71.32Z"/><path class="cls-1" d="M182.37,72a1.32,1.32,0,0,1-2.06,1.29C180.26,72.09,181.21,71.92,182.37,72Z"/><path class="cls-1" d="M87.71,17.41C89,18,89.27,20.78,90,22.7s2.28,3.46,1.68,5.41c-2.26,0-2.15-2.67-2.58-4.64A60.94,60.94,0,0,1,87.71,17.41Z"/><path class="cls-1" d="M155.42,60.87c.25,0,.16.35.52.26-.39.22-.09.26.12.51C155.88,61.86,155.43,61.25,155.42,60.87Z"/><path class="cls-1" d="M154.64,61.39c.23.37.71.49.78,1C154.69,62,155,62.15,154.64,61.39Z"/><text class="cls-2" transform="translate(0 108.5)">В Дебри</text></g></g></svg>