<svg xmlns="http://www.w3.org/2000/svg" viewBox="0 0 174.75 73.49"><defs><style>.cls-1{fill:#fff;fill-rule:evenodd;}</style></defs><title>logo1</title><g id="Layer_2" data-name="Layer 2"><g id="Layer_1-2" data-name="Layer 1"><path class="cls-1" d="M74.93,0a.63.63,0,0,0,.39.13c.77,2.07.33,4.77.51,7.48.21,3.17,2.17,6.63-.51,8.12C74,11.39,74.45,5,74.93,0Z"/><path class="cls-1" d="M134.38,13.15c-2.09,3.81-3.33,8.45-7,10.71.83-4.32,4.33-7.1,6.32-10.71Z"/><path class="cls-1" d="M93.63,13.67H94c-.48,3-.93,7.06-3.74,8.13C89.73,17.92,92.69,16.49,93.63,13.67Z"/><path class="cls-1" d="M46,14.57c3,1.72,4.83,4.63,5.67,8.51-3.23-.89-3.31-4.94-5.54-6.83A3.2,3.2,0,0,0,46,14.57Z"/><path class="cls-1" d="M76.22,18.57c-.74.18-.78-.34-1.42-.26C74.24,15.23,77.46,16.41,76.22,18.57Z"/><path class="cls-1" d="M120.71,17.93c-.2-.06-.11-.41-.52-.26"/><path class="cls-1" d="M105.23,17.54a35.13,35.13,0,0,1-2.45,7c-.94,2.25-2,4.59-4.12,5.29,1.07-5.08,4.31-8,6.19-12.25Z"/><path class="cls-1" d="M26.57,18.06c4,3.14,6.53,7.74,9.41,12-.59.36-1.09.8-1.68,1.16C31.39,27.16,28,23.58,26.57,18.06Z"/><path class="cls-1" d="M76.09,21c.58,1.58,1.22,5.09-.13,6.32C74.33,26.48,73.74,21.52,76.09,21Z"/><path class="cls-1" d="M57.9,32.63A10.83,10.83,0,0,1,52,23.73a.57.57,0,0,0,.13-.39c1.58.43,2.75,2.83,3.87,4.52S58.59,31.09,57.9,32.63Z"/><path class="cls-1" d="M126.9,24.25c-.7,3.55-2.23,7.4-5.42,8.89,0-4,3-6.18,4.78-8.89Z"/><path class="cls-1" d="M76.73,28.63c.9,1.88.41,4.81-.25,6.58C74.3,34.74,74,28.7,76.73,28.63Z"/><path class="cls-1" d="M98.79,30.69A12.86,12.86,0,0,1,96,37.14c-2.46-2,.91-5.22,2.06-6.83C98.41,30.3,98.51,30.58,98.79,30.69Z"/><path class="cls-1" d="M69.25,35c-2-.08-1.3-3.38.13-2.19C69.8,33.1,70.12,34.64,69.25,35Z"/><path class="cls-1" d="M60.1,37.27c-1.32-.45-2.58-1.25-2.58-2.71C57.5,31.13,62.45,35,60.1,37.27Z"/><path class="cls-1" d="M85.37,34.05c.3,2.11-1.1,4.6-2.71,2.83C83.1,35.59,84,33.18,85.37,34.05Z"/><path class="cls-1" d="M121.23,34.18a8.26,8.26,0,0,1-5,7.6C116.11,38,118.55,35.62,121.23,34.18Z"/><path class="cls-1" d="M148.82,34.69c.22,0,.25.1.26.26-1.29,1.76-1.89,4.21-4.38,4.77C144.63,36.6,147,35.89,148.82,34.69Z"/><path class="cls-1" d="M47.59,46.68a2.61,2.61,0,0,1-1.81,1.68c-2.26-4.57-5.84-7.83-8-12.51,0-.57.75-.45.9-.9C42.24,38.28,44.55,42.84,47.59,46.68Z"/><path class="cls-1" d="M105.88,36.75c.22,0,.24.11.26.26-.68,2.51-1.29,5.08-3.23,6.32-.38-.18-.52-.59-.9-.77A10.51,10.51,0,0,1,105.88,36.75Z"/><path class="cls-1" d="M64.09,43.33c-2.86,0-4.88-4.29-2.45-6.06A5.81,5.81,0,0,1,64.09,43.33Z"/><path class="cls-1" d="M52.49,40.24a1.17,1.17,0,0,0-.52.51c-2.42.48-2.8-4.19-.51-2.83C52.13,38.31,52.16,39.26,52.49,40.24Z"/><path class="cls-1" d="M96,38.17c-.65,2.06-1.18,4.24-3.22,4.9C91.78,40.94,93.29,37.1,96,38.17Z"/><path class="cls-1" d="M143.79,40.49c.13,1.25-.95,2.27-1.67,3.23-2.11,2.79-4.65,6.27-8.51,7.35-.06-2.54,2.51-3.43,4.12-4.77,2.07-1.73,3.58-4.24,5.68-5.81Z"/><path class="cls-1" d="M114.39,42.69a3.89,3.89,0,0,1,1.93.51c-1.31,3.34-4.08,6.31-5.67,9.68-.92,1.95-1.28,4.5-3.87,4.77-.86-1.51.51-2.37,1.16-3.48,1.07-1.81,1.84-3.92,2.84-5.81A34.1,34.1,0,0,1,114.39,42.69Z"/><path class="cls-1" d="M174.75,42.82c-.45,1.74-1.67,2.72-4,2.57C171,43.42,172.94,43.2,174.75,42.82Z"/><path class="cls-1" d="M126.77,43.46a2.33,2.33,0,0,1-1.93,2.06C124,44.34,125.7,42.35,126.77,43.46Z"/><path class="cls-1" d="M1.16,46c3.23,1.46,7.42,2,8.9,5.16C6.54,50.55,3,48.82,1.16,46Z"/><path class="cls-1" d="M28.5,46C32,47,35,48.45,35.72,52.1c-2.38,0-3.41-1.78-4.64-3.22C30.2,47.84,29,47.23,28.5,46Z"/><path class="cls-1" d="M168.68,46.56c-1.78,2.8-5.27,3.92-8.38,5.15-3.26,1.3-5.78,3.51-9.15,4.39,1.19-3.33,5.3-4.17,8.77-5.67a37.87,37.87,0,0,0,6.83-3.75A1.5,1.5,0,0,1,168.68,46.56Z"/><path class="cls-1" d="M100.59,46.56a2.74,2.74,0,0,1-2.19,3.87A2.55,2.55,0,0,1,100.59,46.56Z"/><path class="cls-1" d="M123.93,46.94a23.59,23.59,0,0,1-3.22,6.71C118.71,51.43,120.87,47,123.93,46.94Z"/><path class="cls-1" d="M52.23,54.17c-2.19.08-2.73-1.49-3.35-3C50.56,49.48,53,51.86,52.23,54.17Z"/><path class="cls-1" d="M10.45,52c3.19.42,6.59,1.75,7.86,4.52C14.29,56.38,12.18,54.37,10.45,52Z"/><path class="cls-1" d="M42,58.68c-2.78.89-4.79-1.79-4.38-4.51C40.13,54.66,41.16,56.59,42,58.68Z"/><path class="cls-1" d="M118.65,55.33c.13,1.64-.26,2.75-1.94,2.58A1.72,1.72,0,0,1,118.65,55.33Z"/><path class="cls-1" d="M149.21,56.1c-1.28,1.94-3,5.81-6.83,4.77C143.57,58.71,146.44,57.12,149.21,56.1Z"/><path class="cls-1" d="M26.05,61.52c-3.69.16-4.87-2.18-6.83-3.74C22.25,56.38,24.92,59.34,26.05,61.52Z"/><path class="cls-1" d="M105.36,59.45a1.3,1.3,0,0,1-1.29,2.07A1.35,1.35,0,0,1,105.36,59.45Z"/><path class="cls-1" d="M19.73,64.1c-.69,1.19-3.07.11-2.58-1A1.91,1.91,0,0,1,19.73,64.1Z"/><path class="cls-1" d="M173.72,65.51a3.26,3.26,0,0,1-4,2.07C169.57,65.41,172,65.85,173.72,65.51Z"/><path class="cls-1" d="M8.25,69.9c-3.4.44-6.47-1.27-8.25-2.45C3.47,67,6.75,67.91,8.25,69.9Z"/><path class="cls-1" d="M167.91,68c-1.3,2.8-4.79,4.06-8.9,3.62C161.55,70,164.13,68.36,167.91,68Z"/><path class="cls-1" d="M9.67,69c1.57-.11,2.36.56,3.61.77a7.84,7.84,0,0,0-.51,1.81,18.34,18.34,0,0,1-3.36-1C9.35,69.88,9.82,69.75,9.67,69Z"/><path class="cls-1" d="M15.48,70.29c.95-.16,1.84.22,1.93,1C17.78,74.43,11.85,70.86,15.48,70.29Z"/><path class="cls-1" d="M138.12,71.32c-.07.12-.36.19-.13.26,0,.27-.46,0-.64.12v-.38C137.59,71.06,137.82,71.28,138.12,71.32Z"/><path class="cls-1" d="M157.72,72a1.32,1.32,0,0,1-2.06,1.29C155.61,72.09,156.56,71.92,157.72,72Z"/><path class="cls-1" d="M63.06,17.41c1.24.6,1.56,3.37,2.32,5.29s2.28,3.46,1.68,5.41c-2.26,0-2.15-2.67-2.58-4.64A60.94,60.94,0,0,1,63.06,17.41Z"/><path class="cls-1" d="M130.77,60.87c.26,0,.16.35.52.26-.39.22-.09.26.12.51C131.23,61.86,130.78,61.25,130.77,60.87Z"/><path class="cls-1" d="M130,61.39c.22.37.7.49.77,1C130,62,130.36,62.15,130,61.39Z"/></g></g></svg>