<svg xmlns="http://www.w3.org/2000/svg" viewBox="0 0 17.79 17.8"><defs><style>.cls-1{fill:#231f20;}</style></defs><title>Asset 1</title><g id="Layer_2" data-name="Layer 2"><g id="Layer_1-2" data-name="Layer 1"><path class="cls-1" d="M8.9,0A8.9,8.9,0,0,0,1.31,13.55C1,14.75.36,17,.35,17a.5.5,0,0,0,.13.47.49.49,0,0,0,.48.12l3.41-1.05A8.9,8.9,0,1,0,8.9,0Zm2.5,13.84a6.06,6.06,0,0,1-1-.08c-3.13-.46-5.59-3.37-6.55-5.88a4,4,0,0,1,1-4,4,4,0,0,1,.64-.07c.29,0,.36.07.36.07A9.42,9.42,0,0,1,7,6.21c0,.28-.11.58-.68,1.17l-.19.2.07.27A5.33,5.33,0,0,0,8,10a9.22,9.22,0,0,0,2.11,1.38l.22.08.2-.12a6,6,0,0,0,1.27-1.45.53.53,0,0,1,.48,0,5.76,5.76,0,0,1,.67.41c.35.24.89.59,1.51.93A2.73,2.73,0,0,1,11.4,13.84Z"/></g></g></svg>