<svg xmlns="http://www.w3.org/2000/svg" viewBox="0 0 20 20"><defs><style>.cls-1{fill:#ccc;}</style></defs><title>Asset 2</title><g id="Layer_2" data-name="Layer 2"><g id="Layer_1-2" data-name="Layer 1"><path class="cls-1" d="M3,10A1,1,0,0,0,2,9H1a1,1,0,0,0,0,2H2A1,1,0,0,0,3,10Zm.64,5-.71.71a1,1,0,0,0,1.41,1.41l.71-.71A1,1,0,0,0,3.64,15ZM10,3a1,1,0,0,0,1-1V1A1,1,0,0,0,9,1V2A1,1,0,0,0,10,3Zm5.66,2.34a1,1,0,0,0,.7-.29l.71-.71a1,1,0,0,0-1.3-1.52.57.57,0,0,0-.11.11L15,3.64a1,1,0,0,0,0,1.41A1,1,0,0,0,15.66,5.34Zm-12-.29a1,1,0,0,0,.7.29,1,1,0,0,0,.71-1.7l-.71-.71A1,1,0,1,0,2.93,4.34ZM19,9H18a1,1,0,0,0,0,2h1a1,1,0,0,0,0-2Zm-2.64,6a1,1,0,0,0-1.36.39,1,1,0,0,0,0,1l.71.71a1,1,0,0,0,1.41-1.41ZM10,4.5A5.5,5.5,0,1,0,15.5,10,5.5,5.5,0,0,0,10,4.5Zm0,9A3.5,3.5,0,1,1,13.5,10,3.5,3.5,0,0,1,10,13.5ZM10,17a1,1,0,0,0-1,1v1a1,1,0,0,0,2,0V18A1,1,0,0,0,10,17Z"/></g></g></svg>