<svg xmlns="http://www.w3.org/2000/svg" viewBox="0 0 71.45 72.21"><defs><style>.cls-1{fill:none;stroke:#313131;stroke-linecap:round;stroke-linejoin:round;stroke-width:2px;}</style></defs><title>support</title><g id="Layer_2" data-name="Layer 2"><g id="Layer_2-2" data-name="Layer 2"><line class="cls-1" x1="11.91" y1="22.65" x2="5.81" y2="20.18"/><line class="cls-1" x1="9.29" y1="18.15" x2="8.43" y2="24.68"/><path class="cls-1" d="M28.15,32.71a4.18,4.18,0,0,1,.64.3c1.73.93,3.48,2.24,5.33.66s2.05-5,2.1-8.39a10,10,0,0,1,7.48-9.73"/><path class="cls-1" d="M51.1,16.18A9.53,9.53,0,0,1,55.43,20c2,3.23,3.14,6.5,5.32,6.85,5,.79,5.94-4.24,5.94-4.24"/><path class="cls-1" d="M12.46,27.51c1.63,2.46,1.13,5.3-.39,8.13s-5,6.55-3.07,9.94a4.29,4.29,0,0,0,3.58,2.17c4.76.11,4.09-6,5-9.1a9.91,9.91,0,0,1,3.15-4.94"/><line class="cls-1" x1="1" y1="16.89" x2="1" y2="69.69"/><line class="cls-1" x1="1" y1="16.89" x2="24.46" y2="1"/><line class="cls-1" x1="1" y1="69.69" x2="24.46" y2="53.8"/><polyline class="cls-1" points="29.48 55.36 24.46 53.81 24.46 1 47.4 8.09"/><polyline class="cls-1" points="47.4 26.18 47.4 8.09 70.45 4.08 70.45 37.6"/><path class="cls-1" d="M37.81,54.29a13.51,13.51,0,0,0,1.45,4.46h0A13.16,13.16,0,0,0,42,62.38h0"/><circle class="cls-1" cx="51.56" cy="52.32" r="18.89" transform="translate(-20.9 64.39) rotate(-54.87)"/><path class="cls-1" d="M65.31,50.35a13.52,13.52,0,0,0-1.44-4.45h0a13.77,13.77,0,0,0-2.74-3.63h0A13.6,13.6,0,0,0,56,39.18"/><polygon class="cls-1" points="55.64 65.34 54.64 51.37 51.56 52.34 48.49 53.3 55.64 65.34"/><polyline class="cls-1" points="54.64 51.37 47.48 39.33 48.49 53.3"/><ellipse class="cls-1" cx="51.56" cy="31.25" rx="3.81" ry="2.18"/></g></g></svg>