<svg xmlns="http://www.w3.org/2000/svg" viewBox="0 0 107.01 91.16"><defs><style>.cls-1{fill:none;stroke:#313131;stroke-linecap:round;stroke-linejoin:round;stroke-width:2px;}</style></defs><title>team</title><g id="Layer_2" data-name="Layer 2"><g id="Layer_2-2" data-name="Layer 2"><circle class="cls-1" cx="49.4" cy="21.26" r="4.69" transform="translate(-0.8 1.95) rotate(-2.25)"/><path class="cls-1" d="M60.72,37.91a1.88,1.88,0,0,1-.23.16s0,0-.06,0a1.46,1.46,0,0,1-.31.14.36.36,0,0,1-.15.06l-.16.05-.3.06h-.67a1.58,1.58,0,0,1-.66-.15l-.13,0-6.34-2.78"/><path class="cls-1" d="M52.81,30a.4.4,0,0,1,.13.06.09.09,0,0,1,.06,0l5.73,2.53"/><path class="cls-1" d="M58.73,32.65l4.88-3.94.27-.19a2.49,2.49,0,0,1,1.05-.39,2.6,2.6,0,0,1,1.55.27h0a2.4,2.4,0,0,1,.89.71,2.66,2.66,0,0,1-.31,3.68h0l-.09.07L64.7,34.72l-3.85,3.11a1.48,1.48,0,0,1-.13.08,1.88,1.88,0,0,1-.23.16s0,0-.06,0a1.46,1.46,0,0,1-.31.14.36.36,0,0,1-.15.06l-.16.05-.3.06a2.5,2.5,0,0,1-.67,0,3,3,0,0,1-.66-.15"/><path class="cls-1" d="M54.88,52.12l-.34,7.59a3,3,0,0,0,2.87,3.1,2.35,2.35,0,0,0,.53,0A3,3,0,0,0,60.52,60l.4-9.57v0h0v0a3.32,3.32,0,0,0-.34-1.48c-.08-.15-.18-.29-.27-.43-1.17-1.37-9.3-4.67-9.3-4.67"/><path class="cls-1" d="M43.25,53.29l-4,16.82a3,3,0,0,0,2.2,3.6,2.88,2.88,0,0,0,1.09.05A3,3,0,0,0,45,71.5l3.77-15.6"/><path class="cls-1" d="M40,32.81,30.6,37.49A2.63,2.63,0,0,0,29.41,41a2.83,2.83,0,0,0,.58.78,2.65,2.65,0,0,0,2.95.41l5.76-2.84"/><path class="cls-1" d="M19.86,41.43l7-14.06a2.64,2.64,0,0,0-1.2-3.53,2.71,2.71,0,0,0-.93-.26,2.65,2.65,0,0,0-2.6,1.47l-2,4.17"/><path class="cls-1" d="M54.87,52.12s-7.33-2.66-9.82-4.24l-.2-.13c-2.28-1.53-2.23-4.56-2.13-6.86,0-.15,0-.31,0-.47a42.8,42.8,0,0,1,1.53-8.05,4.27,4.27,0,0,1,4.21-3.17,15,15,0,0,1,4.33.84.45.45,0,0,0,.13.06.09.09,0,0,1,.06,0"/><path class="cls-1" d="M51,43.77h0a24.17,24.17,0,0,1,.7-8.34"/><circle class="cls-1" cx="88.23" cy="5.69" r="4.69"/><path class="cls-1" d="M105,12.43a1.26,1.26,0,0,1-.05.28s0,0,0,0a1.17,1.17,0,0,1-.12.31.59.59,0,0,1-.07.16.64.64,0,0,1-.08.14,1.56,1.56,0,0,1-.17.25l-.48.48a1.59,1.59,0,0,1-.58.34.75.75,0,0,1-.13.06l-6.48,2.42"/><path class="cls-1" d="M93.85,12.3l.14,0a.09.09,0,0,1,.06,0l5.87-2.18"/><path class="cls-1" d="M99.92,10.05l.75-6.23.06-.32a2.56,2.56,0,0,1,.48-1,2.67,2.67,0,0,1,1.3-.9h0a2.25,2.25,0,0,1,1.13-.11A2.66,2.66,0,0,1,106,4.34h0v.12l-.36,2.9-.59,4.92a.42.42,0,0,1,0,.15,1.26,1.26,0,0,1-.05.28s0,0,0,0a1.17,1.17,0,0,1-.12.31.59.59,0,0,1-.07.16.64.64,0,0,1-.08.14,1.56,1.56,0,0,1-.17.25,2.43,2.43,0,0,1-.48.48,4.19,4.19,0,0,1-.58.34"/><path class="cls-1" d="M95.67,30.57c1.48.49,2.75.95,3.29,1.2l.43.28a2.91,2.91,0,0,1,.92,1.2l0,0v0L104,42.16a3,3,0,0,1-1.17,3.65,2.09,2.09,0,0,1-.47.25,3,3,0,0,1-3.9-1.63l-2.86-7-2-.66"/><path class="cls-1" d="M86.14,14.66,66.55,24a2.63,2.63,0,0,0-.75,3.65,2.8,2.8,0,0,0,.67.7,2.64,2.64,0,0,0,3,0l12.91-5.88"/><path class="cls-1" d="M82.35,22.51c-1.23,4.77-2.32,11,.68,12.22L78.75,54.44A3,3,0,0,0,81,58a2.71,2.71,0,0,0,1.09.07A2.93,2.93,0,0,0,83.93,57a2.85,2.85,0,0,0,.61-1.2L89.31,35.2l.52-2c.63-2.4,2-11.68,1.75-14.13s-1.1-4.69-3.49-4.8H88a3.89,3.89,0,0,0-1.87.39c-.1,0-.18.09-.26.13"/><path class="cls-1" d="M17.43,35.05a4.7,4.7,0,1,1-5.27-4A4.71,4.71,0,0,1,17.43,35.05Z"/><path class="cls-1" d="M22.81,47.76l3.57-5.17a2.39,2.39,0,0,1,.21-.26,2.59,2.59,0,0,1,.89-.66A2.55,2.55,0,0,1,29,41.48h0a2.44,2.44,0,0,1,1.05.43,2.65,2.65,0,0,1,.74,3.62h0a.36.36,0,0,0-.07.1L29.14,48l-2.83,4.08a3.79,3.79,0,0,1-4,1.16s-4.06-1.77-5.74-2.51"/><path class="cls-1" d="M16.9,45.07l.13.06.06,0,5.73,2.52"/><path class="cls-1" d="M19.6,60.48a52.76,52.76,0,0,0,5,1.83,3.05,3.05,0,0,1,.46.2,3.16,3.16,0,0,1,1.13,1l0,0,0,0,5.21,8a3,3,0,0,1-.48,3.8,1.42,1.42,0,0,1-.41.32,3,3,0,0,1-4.13-.87l-4.12-6.38"/><path class="cls-1" d="M7.6,61.33l-2,24.47A3,3,0,0,0,8.38,89a3,3,0,0,0,3.21-2.74l1.59-21.39"/><path class="cls-1" d="M7.61,61.34a17,17,0,0,1-.54-5.52,3.59,3.59,0,0,1,0-.47,37.47,37.47,0,0,1,1.27-7.94,4.24,4.24,0,0,1,4.2-3.17,14.63,14.63,0,0,1,4.33.83.22.22,0,0,0,.13.06l.06,0"/><path class="cls-1" d="M17.61,66.62c2.79,1.21,4.72,1.84,4.72,1.84"/><path class="cls-1" d="M13.18,64.88c.17-.28.34-.56.5-.85a15.93,15.93,0,0,0,2-7.59,28.19,28.19,0,0,1,.84-5.67"/><path class="cls-1" d="M1,90a34.55,34.55,0,0,0,14-1.77c7.3-2.46,15.86-8.29,19.36-9.86a70.46,70.46,0,0,0,11.22-6.34C52.4,67.33,56,60.54,71.3,60.54c13.83-1.47,22.27-8.35,28.42-12.68A59.63,59.63,0,0,1,106,43.94"/><line class="cls-1" x1="96.32" y1="59.56" x2="98.7" y2="62.67"/><line class="cls-1" x1="104.24" y1="56.99" x2="104.13" y2="60.9"/><line class="cls-1" x1="72.55" y1="70.92" x2="74.94" y2="74.02"/><line class="cls-1" x1="80.47" y1="68.34" x2="80.37" y2="72.26"/><line class="cls-1" x1="36.01" y1="86.37" x2="38.4" y2="89.48"/><line class="cls-1" x1="43.93" y1="83.8" x2="43.83" y2="87.71"/><line class="cls-1" x1="93.41" y1="84.57" x2="95.48" y2="87.89"/><line class="cls-1" x1="101.54" y1="82.78" x2="101.06" y2="86.66"/><line class="cls-1" x1="60.42" y1="85.11" x2="62.49" y2="88.43"/><line class="cls-1" x1="68.55" y1="83.31" x2="68.07" y2="87.2"/></g></g></svg>