<svg xmlns="http://www.w3.org/2000/svg" viewBox="0 0 22.53 22.53"><defs><style>.cls-1{fill:#666;}</style></defs><title>instagram</title><g id="Layer_2" data-name="Layer 2"><g id="Layer_3" data-name="Layer 3"><path class="cls-1" d="M13.42,11.26a2.16,2.16,0,1,1-2.16-2.15,2.16,2.16,0,0,1,2.16,2.15"/><path class="cls-1" d="M14.72,8.59a.78.78,0,1,1,.77-.78.78.78,0,0,1-.77.78m-3.46,6a3.33,3.33,0,1,1,3.33-3.33,3.33,3.33,0,0,1-3.33,3.33m5-7.14a2,2,0,0,0-.49-.74,2,2,0,0,0-.74-.49A3.6,3.6,0,0,0,13.88,6c-.69,0-.89,0-2.62,0S9.33,6,8.65,6a3.6,3.6,0,0,0-1.2.22,2,2,0,0,0-.74.49,1.85,1.85,0,0,0-.49.74A3.6,3.6,0,0,0,6,8.65c0,.68,0,.89,0,2.61s0,1.94,0,2.62a3.6,3.6,0,0,0,.22,1.2,1.85,1.85,0,0,0,.49.74,2,2,0,0,0,.74.49,3.6,3.6,0,0,0,1.2.22c.68,0,.89,0,2.61,0s1.93,0,2.62,0a3.6,3.6,0,0,0,1.2-.22,2.19,2.19,0,0,0,1.23-1.23,3.89,3.89,0,0,0,.22-1.2c0-.68,0-.89,0-2.62s0-1.93,0-2.61a3.89,3.89,0,0,0-.22-1.2"/><path class="cls-1" d="M17.69,13.93a4.69,4.69,0,0,1-.3,1.57,3.26,3.26,0,0,1-1.89,1.89,4.69,4.69,0,0,1-1.57.3c-.69,0-.91,0-2.67,0s-2,0-2.66,0A4.69,4.69,0,0,1,7,17.39a3.12,3.12,0,0,1-1.15-.74,3.2,3.2,0,0,1-.74-1.15,4.93,4.93,0,0,1-.31-1.57c0-.69,0-.91,0-2.67s0-2,0-2.66A4.93,4.93,0,0,1,5.14,7a3.2,3.2,0,0,1,.74-1.15A3.12,3.12,0,0,1,7,5.14,4.93,4.93,0,0,1,8.6,4.83c.69,0,.91,0,2.66,0s2,0,2.67,0a4.93,4.93,0,0,1,1.57.31A3.23,3.23,0,0,1,17.39,7a4.69,4.69,0,0,1,.3,1.57c0,.69,0,.91,0,2.66s0,2,0,2.67M11.26,0A11.27,11.27,0,1,0,22.53,11.26,11.26,11.26,0,0,0,11.26,0"/></g></g></svg>