<svg xmlns="http://www.w3.org/2000/svg" viewBox="0 0 21.39 21.39"><defs><style>.cls-1{fill:#666;}</style></defs><title>vk_1</title><g id="Layer_2" data-name="Layer 2"><g id="Layer_3" data-name="Layer 3"><path class="cls-1" d="M16.82,15.39l-1.87,0a1.36,1.36,0,0,1-.94-.28c-.7-.48-1.36-1.73-1.87-1.57s-.51,1.29-.51,1.29a.63.63,0,0,1-.12.37.71.71,0,0,1-.38.17h-.84A4.82,4.82,0,0,1,6.81,13.8,22.75,22.75,0,0,1,3.46,8.27s-.09-.24,0-.35a.73.73,0,0,1,.42-.14l2,0a1.14,1.14,0,0,1,.32.13.68.68,0,0,1,.17.24,13.9,13.9,0,0,0,.76,1.56C8,11.14,8.37,11.46,8.65,11.3s.29-2.05.29-2.05a2,2,0,0,0-.21-.95A1,1,0,0,0,8.11,8c-.11,0,.07-.27.31-.39a4.44,4.44,0,0,1,1.75-.18,3.59,3.59,0,0,1,1,.1c.69.17.46.81.46,2.36,0,.5-.09,1.19.27,1.42.15.1.53,0,1.47-1.58a13.49,13.49,0,0,0,.78-1.64.6.6,0,0,1,.18-.23.51.51,0,0,1,.28,0h2.11s.63-.08.73.21-.23,1-1.1,2.15c-1.41,1.89-1.57,1.71-.39,2.8a6.26,6.26,0,0,1,1.39,1.62c.47.77-.52.83-.52.83M10.7,0A10.7,10.7,0,1,0,21.39,10.7,10.7,10.7,0,0,0,10.7,0"/></g></g></svg>