<svg xmlns="http://www.w3.org/2000/svg" viewBox="0 0 21.89 21.89"><defs><style>.cls-1{fill:#666;}.cls-2{fill:#fff;}</style></defs><title>whatsapp</title><g id="Layer_2" data-name="Layer 2"><g id="Layer_3" data-name="Layer 3"><path class="cls-1" d="M10.94,0A10.95,10.95,0,0,0,1.61,16.66C1.2,18.14.44,20.88.43,20.93a.62.62,0,0,0,.16.58.6.6,0,0,0,.6.14l4.18-1.29A10.94,10.94,0,1,0,10.94,0Z"/><path class="cls-2" d="M6.76,4.66A4.08,4.08,0,0,0,6,4.75C5.89,4.84,3.73,7,4.75,9.7c1.18,3.07,4.21,6.65,8.06,7.23A9.21,9.21,0,0,0,14,17a3.36,3.36,0,0,0,3.73-3.17c-.77-.43-1.42-.86-1.86-1.14s-.64-.42-.82-.52a.73.73,0,0,0-.59,0A7.3,7.3,0,0,1,12.92,14l-.25.15L12.4,14a11.93,11.93,0,0,1-2.6-1.7A6.67,6.67,0,0,1,7.66,9.66l-.08-.34.23-.24c.7-.73.84-1.1.84-1.45A12,12,0,0,0,7.2,4.75S7.11,4.66,6.76,4.66Z"/></g></g></svg>